<svg width="175" height="189" viewBox="0 0 175 189" fill="none" xmlns="http://www.w3.org/2000/svg">
<rect width="107.582" height="33.6677" transform="matrix(-1 0 0 1 161.456 107.582)" fill="#B5DE10"/>
<rect width="40.2464" height="53.7909" transform="matrix(-1 0 0 1 87.5413 67.3353)" fill="#B5DE10"/>
<rect width="67.3353" height="33.6677" transform="matrix(-1 0 0 1 73.9972 20.1232)" fill="#B5DE10"/>
<rect width="6.73077" height="40.3846" transform="matrix(-1 0 0 1 175 75)" fill="#04D000"/>
<rect width="6.73077" height="6.73077" transform="matrix(-1 0 0 1 168.269 87.5)" fill="#04D000"/>
<rect width="26.9231" height="86.5385" transform="matrix(-1 0 0 1 74.0383 20.1923)" fill="#B5DE10"/>
<rect width="6.73077" height="6.73077" transform="matrix(-1 0 0 1 161.538 94.2308)" fill="#04D000"/>
<rect width="6.73077" height="6.73077" transform="matrix(-1 0 0 1 121.154 100.962)" fill="#04D000"/>
<rect width="6.73077" height="6.73077" transform="matrix(-1 0 0 1 114.423 94.2308)" fill="#04D000"/>
<rect width="6.73077" height="6.73077" transform="matrix(-1 0 0 1 107.692 87.5)" fill="#04D000"/>
<rect width="6.73077" height="6.73077" transform="matrix(-1 0 0 1 100.962 80.7692)" fill="#04D000"/>
<rect width="6.73077" height="6.73077" transform="matrix(-1 0 0 1 94.2307 74.0385)" fill="#04D000"/>
<rect width="6.73077" height="6.73077" transform="matrix(-1 0 0 1 87.5 67.3077)" fill="#04D000"/>
<rect width="6.73077" height="6.73077" transform="matrix(-1 0 0 1 74.0383 13.4615)" fill="#04D000"/>
<rect width="6.73077" height="6.73077" transform="matrix(-1 0 0 1 13.4618 13.4615)" fill="#04D000"/>
<rect width="6.73077" height="6.73077" transform="matrix(-1 0 0 1 40.3848 53.8462)" fill="#04D000"/>
<rect width="6.73077" height="6.73077" transform="matrix(-1 0 0 1 25 95.1923)" fill="#04D000"/>
<rect width="6.73077" height="6.73077" transform="matrix(-1 0 0 1 60.577 134.615)" fill="#04D000"/>
<rect width="6.73077" height="6.73077" transform="matrix(-1 0 0 1 67.3077 141.346)" fill="#04D000"/>
<rect width="6.73077" height="6.73077" transform="matrix(-1 0 0 1 74.0383 148.077)" fill="#04D000"/>
<rect width="6.73077" height="6.73077" transform="matrix(-1 0 0 1 80.7694 154.808)" fill="#04D000"/>
<rect width="6.73077" height="6.73077" transform="matrix(-1 0 0 1 87.5 161.538)" fill="#04D000"/>
<rect width="6.73077" height="6.73077" transform="matrix(-1 0 0 1 100.962 161.538)" fill="#04D000"/>
<rect width="6.73077" height="6.73077" transform="matrix(-1 0 0 1 107.692 154.808)" fill="#04D000"/>
<rect width="6.73077" height="6.73077" transform="matrix(-1 0 0 1 114.423 161.538)" fill="#04D000"/>
<rect width="6.73077" height="6.73077" transform="matrix(-1 0 0 1 127.885 161.538)" fill="#04D000"/>
<rect width="6.73077" height="6.73077" transform="matrix(-1 0 0 1 148.077 148.077)" fill="#04D000"/>
<rect width="6.73077" height="6.73077" transform="matrix(-1 0 0 1 154.808 141.346)" fill="#04D000"/>
<rect width="6.73077" height="12.5" transform="matrix(-1 0 0 1 161.538 128.846)" fill="#04D000"/>
<rect width="6.73077" height="13.4615" transform="matrix(-1 0 0 1 168.269 115.385)" fill="#04D000"/>
<rect width="13.4615" height="6.73077" transform="matrix(-1 0 0 1 141.346 154.808)" fill="#04D000"/>
<rect width="13.4615" height="6.73077" transform="matrix(-1 0 0 1 87.5 181.731)" fill="#04D000"/>
<rect width="13.4615" height="6.73077" transform="matrix(-1 0 0 1 114.423 181.731)" fill="#04D000"/>
<rect width="6.73077" height="13.4615" transform="matrix(-1 0 0 1 94.2307 168.269)" fill="#04D000"/>
<rect width="6.73077" height="13.4615" transform="matrix(-1 0 0 1 121.154 168.269)" fill="#04D000"/>
<rect width="20.1923" height="6.73077" transform="matrix(-1 0 0 1 53.8464 0)" fill="#04D000"/>
<rect width="26.9231" height="6.73077" transform="matrix(-1 0 0 1 33.6537 47.1154)" fill="#04D000"/>
<rect width="26.9231" height="6.73077" transform="matrix(-1 0 0 1 33.6537 60.5769)" fill="#04D000"/>
<rect width="33.6538" height="6.73077" transform="matrix(-1 0 0 1 58.6541 88.4615)" fill="#04D000"/>
<rect width="6.73077" height="47.1154" transform="matrix(-1 0 0 1 80.7694 20.1923)" fill="#04D000"/>
<rect width="6.73077" height="60.5769" transform="matrix(-1 0 0 1 47.1154 60.5769)" fill="#04D000"/>
<rect width="6.73077" height="26.9231" transform="matrix(-1 0 0 1 6.73071 20.1923)" fill="#04D000"/>
<rect width="6.73077" height="13.4615" transform="matrix(-1 0 0 1 53.8464 121.154)" fill="#04D000"/>
<rect width="13.4615" height="6.73077" transform="matrix(-1 0 0 1 154.808 100.962)" fill="#04D000"/>
<rect width="20.1923" height="6.73077" transform="matrix(-1 0 0 1 141.346 107.692)" fill="#04D000"/>
<rect width="6.73077" height="6.73077" transform="matrix(-1 0 0 1 168.269 94.2308)" fill="#AFFE60"/>
<rect width="6.73077" height="14.4231" transform="matrix(-1 0 0 1 168.269 100.962)" fill="#B5DE10"/>
<rect width="6.73077" height="20.1923" transform="matrix(-1 0 0 1 154.808 121.154)" fill="#B5DE10"/>
<rect width="6.73077" height="26.9231" transform="matrix(-1 0 0 1 148.077 121.154)" fill="#B5DE10"/>
<rect width="20.1923" height="6.73077" transform="matrix(-1 0 0 1 127.885 154.808)" fill="#B5DE10"/>
<rect width="20.1923" height="6.73077" transform="matrix(-1 0 0 1 100.962 154.808)" fill="#B5DE10"/>
<rect width="20.1923" height="39.4231" transform="matrix(-1 0 0 1 74.0383 95.1923)" fill="#B5DE10"/>
<rect width="13.4615" height="6.73077" transform="matrix(-1 0 0 1 74.0383 134.615)" fill="#B5DE10"/>
<rect width="22.1154" height="7.69231" transform="matrix(-1 0 0 1 80.7694 87.5)" fill="#B5DE10"/>
<rect width="6.73077" height="6.73077" transform="matrix(-1 0 0 1 121.154 161.538)" fill="#B5DE10"/>
<rect width="47.1154" height="6.73077" transform="matrix(-1 0 0 1 121.154 121.154)" fill="#B5DE10"/>
<rect width="40.3846" height="6.73077" transform="matrix(-1 0 0 1 114.423 114.423)" fill="#B5DE10"/>
<rect width="33.6538" height="6.73077" transform="matrix(-1 0 0 1 107.692 107.692)" fill="#B5DE10"/>
<rect width="6.73077" height="6.73077" transform="matrix(-1 0 0 1 94.2307 161.538)" fill="#B5DE10"/>
<rect width="6.73077" height="6.73077" transform="matrix(-1 0 0 1 74.0383 141.346)" fill="#B5DE10"/>
<rect width="6.73077" height="40.3846" transform="matrix(-1 0 0 1 47.1154 20.1923)" fill="#B5DE10"/>
<rect width="6.73077" height="40.3846" transform="matrix(-1 0 0 1 40.3848 13.4615)" fill="#B5DE10"/>
<rect width="13.4615" height="13.4615" transform="matrix(-1 0 0 1 87.5 94.2308)" fill="#B5DE10"/>
<rect width="67.3077" height="26.9231" transform="matrix(-1 0 0 1 141.346 127.885)" fill="#B5DE10"/>
<rect width="6.73077" height="6.73077" transform="matrix(-1 0 0 1 161.538 100.962)" fill="#AFFE60"/>
<rect width="6.73077" height="13.4615" transform="matrix(-1 0 0 1 121.154 107.692)" fill="#AFFE60"/>
<rect width="6.73077" height="13.4615" transform="matrix(-1 0 0 1 114.423 100.962)" fill="#AFFE60"/>
<rect width="20.1923" height="6.73077" transform="matrix(-1 0 0 1 100.962 87.5)" fill="#AFFE60"/>
<rect width="20.1923" height="6.73077" transform="matrix(-1 0 0 1 94.2307 80.7692)" fill="#AFFE60"/>
<rect width="20.1923" height="6.73077" transform="matrix(-1 0 0 1 87.5 74.0385)" fill="#AFFE60"/>
<rect width="13.4615" height="6.73077" transform="matrix(-1 0 0 1 80.7694 67.3077)" fill="#AFFE60"/>
<rect width="6.73077" height="13.4615" transform="matrix(-1 0 0 1 67.3077 13.4615)" fill="#AFFE60"/>
<rect width="6.73077" height="13.4615" transform="matrix(-1 0 0 1 20.1924 13.4615)" fill="#AFFE60"/>
<rect width="6.73077" height="13.4615" transform="matrix(-1 0 0 1 13.4618 20.1923)" fill="#AFFE60"/>
<rect width="47.1154" height="13.4615" transform="matrix(-1 0 0 1 60.577 6.73077)" fill="#AFFE60"/>
<rect width="13.4615" height="6.73077" transform="matrix(-1 0 0 1 67.3077 6.73077)" fill="#04D000"/>
<rect width="6.73077" height="47.1154" transform="matrix(-1 0 0 1 74.0383 20.1923)" fill="#AFFE60"/>
<rect width="20.1923" height="13.4615" transform="matrix(-1 0 0 1 107.692 94.2308)" fill="#AFFE60"/>
<rect width="20.1923" height="6.73077" transform="matrix(-1 0 0 1 33.6537 6.73077)" fill="#04D000"/>
<rect width="20.1923" height="13.4615" transform="matrix(-1 0 0 1 141.346 114.423)" fill="#AFFE60"/>
<rect width="13.4615" height="13.4615" transform="matrix(-1 0 0 1 154.808 107.692)" fill="#AFFE60"/>
<rect width="6.73077" height="6.73077" transform="matrix(-1 0 0 1 46.1537 13.4615)" fill="black"/>
<rect width="6.73077" height="6.73077" transform="matrix(-1 0 0 1 46.1537 26.9231)" fill="black"/>
<rect width="6.73077" height="6.73077" transform="matrix(-1 0 0 1 52.8848 20.1923)" fill="black"/>
<rect width="6.73077" height="6.73077" transform="matrix(-1 0 0 1 39.4231 20.1923)" fill="black"/>
<rect width="6.73077" height="6.73077" transform="matrix(-1 0 0 1 46.1537 20.1923)" fill="white"/>
</svg>
