<svg width="70" height="70" viewBox="0 0 70 70" fill="none" xmlns="http://www.w3.org/2000/svg">
<path fill-rule="evenodd" clip-rule="evenodd" d="M15.8334 0.5H54.1667V8H62V15.8333H69.5V54.1667H62V63H54.1667V69.5H15.8333V63H8V54.1667H0.5V15.8333H8V8H15.8334V0.5Z" fill="url(#paint0_linear_186_413)"/>
<path fill-rule="evenodd" clip-rule="evenodd" d="M25.4167 17.75H25.4167V21.5833V21.5834H19.667H15.8337V25.4166H15.8334V48.4166H15.8337V48.4167V52.2501H19.667H50.3335H54.1669L54.167 52.2501L54.1672 52.2501V48.4167L54.167 48.4167H54.1669V25.4167H54.1671V21.5834H54.1669H54.1667V21.5833H44.5834V17.75H44.5834H40.75H40.75H29.25H29.25H25.4167ZM44.5834 25.4166H44.5838V25.4167H50.3334V48.4166H50.3335V48.4167H19.667V25.4167L29.2505 25.4168V21.5834L29.2504 21.5834H29.25V21.5833H40.75V25.4167H40.75H44.5834H44.5834V25.4166ZM31.1672 29.25H38.8338V33.0834H31.1672V29.25ZM38.8338 40.75H31.1672V44.5834H38.8338V40.75ZM27.3334 33.0834H31.1667V40.75H27.3334V33.0834ZM42.6669 33.0834H38.8336V40.75H42.6669V33.0834Z" fill="white"/>
<defs>
<linearGradient id="paint0_linear_186_413" x1="5" y1="8.5" x2="64.5" y2="65.5" gradientUnits="userSpaceOnUse">
<stop offset="0.109375" stop-color="#FFC700"/>
<stop offset="0.682292" stop-color="#FF00E5" stop-opacity="0.81"/>
<stop offset="1" stop-color="#8F00FF"/>
</linearGradient>
</defs>
</svg>
