<svg width="260" height="270" viewBox="0 0 260 270" fill="none" xmlns="http://www.w3.org/2000/svg">
<path d="M19.5 105V165H30V190H40V210.5H50V220H59.5V232H70V241.5H88.5V252H119V260H140V250H154.5H171V240.5H191V231H200V220H210V211.5H220V190H230.5V165H241.5V105H230.5V80H220V60H210V50H200V38.5H190V30H181.5H170V19.5H149.5H140V10H119V19.5H88.5V30H70V38.5H59.5V50H50V60H40V80H30V105H19.5Z" fill="#A2BF2E"/>
<rect x="110" y="260" width="30" height="10" fill="#B5DE10"/>
<rect x="110" width="30" height="10" fill="#B5DE10"/>
<rect x="140" y="250" width="30" height="10" fill="#B5DE10"/>
<rect x="140" y="10" width="30" height="10" fill="#B5DE10"/>
<rect x="80" y="250" width="30" height="10" fill="#B5DE10"/>
<rect x="80" y="10" width="30" height="10" fill="#B5DE10"/>
<rect x="170" y="240" width="20" height="10" fill="#B5DE10"/>
<rect x="60" y="240" width="20" height="10" fill="#B5DE10"/>
<rect x="170" y="20" width="20" height="10" fill="#B5DE10"/>
<rect x="60" y="20" width="20" height="10" fill="#B5DE10"/>
<rect x="190" y="230" width="10" height="10" fill="#B5DE10"/>
<rect x="50" y="230" width="10" height="10" fill="#B5DE10"/>
<rect x="190" y="30" width="10" height="10" fill="#B5DE10"/>
<rect x="50" y="30" width="10" height="10" fill="#B5DE10"/>
<rect x="200" y="220" width="10" height="10" fill="#B5DE10"/>
<rect x="40" y="220" width="10" height="10" fill="#B5DE10"/>
<rect x="200" y="40" width="10" height="10" fill="#B5DE10"/>
<rect x="40" y="40" width="10" height="10" fill="#B5DE10"/>
<rect x="210" y="210" width="10" height="10" fill="#B5DE10"/>
<rect x="30" y="210" width="10" height="10" fill="#B5DE10"/>
<rect x="210" y="50" width="10" height="10" fill="#B5DE10"/>
<rect x="30" y="50" width="10" height="10" fill="#B5DE10"/>
<rect x="220" y="190" width="10" height="20" fill="#B5DE10"/>
<rect x="20" y="190" width="10" height="20" fill="#B5DE10"/>
<rect x="220" y="60" width="10" height="20" fill="#B5DE10"/>
<rect x="20" y="60" width="10" height="20" fill="#B5DE10"/>
<rect x="230" y="165" width="10" height="25" fill="#B5DE10"/>
<rect x="10" y="165" width="10" height="25" fill="#B5DE10"/>
<rect x="230" y="80" width="10" height="25" fill="#B5DE10"/>
<rect x="10" y="80" width="10" height="25" fill="#B5DE10"/>
<rect x="240" y="105" width="10" height="60" fill="#B5DE10"/>
<rect y="105" width="10" height="60" fill="#B5DE10"/>
<rect x="120" y="260" width="30" height="10" fill="#819E0D"/>
<rect x="120" width="30" height="10" fill="#819E0D"/>
<rect x="150" y="250" width="30" height="10" fill="#819E0D"/>
<rect x="150" y="10" width="30" height="10" fill="#819E0D"/>
<rect x="90" y="250" width="30" height="10" fill="#819E0D"/>
<rect x="90" y="10" width="30" height="10" fill="#819E0D"/>
<rect x="180" y="240" width="20" height="10" fill="#819E0D"/>
<rect x="70" y="240" width="20" height="10" fill="#819E0D"/>
<rect x="180" y="20" width="20" height="10" fill="#819E0D"/>
<rect x="70" y="20" width="20" height="10" fill="#819E0D"/>
<rect x="200" y="230" width="10" height="10" fill="#819E0D"/>
<rect x="60" y="230" width="10" height="10" fill="#819E0D"/>
<rect x="200" y="30" width="10" height="10" fill="#819E0D"/>
<rect x="60" y="30" width="10" height="10" fill="#819E0D"/>
<rect x="210" y="220" width="10" height="10" fill="#819E0D"/>
<rect x="50" y="220" width="10" height="10" fill="#819E0D"/>
<rect x="210" y="40" width="10" height="10" fill="#819E0D"/>
<rect x="50" y="40" width="10" height="10" fill="#819E0D"/>
<rect x="220" y="210" width="10" height="10" fill="#819E0D"/>
<rect x="40" y="210" width="10" height="10" fill="#819E0D"/>
<rect x="220" y="50" width="10" height="10" fill="#819E0D"/>
<rect x="40" y="50" width="10" height="10" fill="#819E0D"/>
<rect x="230" y="190" width="10" height="20" fill="#819E0D"/>
<rect x="30" y="190" width="10" height="20" fill="#819E0D"/>
<rect x="230" y="60" width="10" height="20" fill="#819E0D"/>
<rect x="30" y="60" width="10" height="20" fill="#819E0D"/>
<rect x="240" y="165" width="10" height="25" fill="#819E0D"/>
<rect x="20" y="165" width="10" height="25" fill="#819E0D"/>
<rect x="240" y="80" width="10" height="25" fill="#819E0D"/>
<rect x="20" y="80" width="10" height="25" fill="#819E0D"/>
<rect x="250" y="105" width="10" height="60" fill="#819E0D"/>
<rect x="10" y="105" width="10" height="60" fill="#819E0D"/>
</svg>
