<svg width="71" height="71" viewBox="0 0 71 71" fill="none" xmlns="http://www.w3.org/2000/svg">
<rect y="4.30322" width="71" height="66.6969" fill="#035101"/>
<rect y="4.30322" width="66.6969" height="62.3939" fill="#04D000"/>
<rect x="4.30298" width="62.3939" height="66.6969" fill="#04D000"/>
<rect x="4.30298" y="4.30322" width="62.3939" height="62.3939" fill="#B5DE10"/>
<rect x="58.0908" y="58.0908" width="4.30303" height="4.30303" fill="#035101"/>
<rect x="8.60602" y="58.0908" width="4.30303" height="4.30303" fill="#035101"/>
<rect x="8.60602" y="8.60596" width="4.30303" height="4.30303" fill="#035101"/>
<rect x="58.0908" y="8.60596" width="4.30303" height="4.30303" fill="#035101"/>
<rect x="27.7546" y="17.2122" width="4.30303" height="17.2121" fill="#035101"/>
<rect x="40.6636" y="34.4246" width="4.30303" height="12.9091" fill="#035101"/>
<rect x="36.3606" y="38.7273" width="4.30303" height="8.60606" fill="#035101"/>
<rect x="36.3606" y="52.4971" width="8.60606" height="8.60606" fill="#035101"/>
<rect x="44.9666" y="21.5154" width="8.60606" height="17.2121" fill="#035101"/>
<rect x="23.4515" y="21.5154" width="4.30303" height="12.9091" fill="#035101"/>
<rect x="32.0576" y="17.2122" width="17.2121" height="4.30303" fill="#035101"/>
<rect x="23.6666" y="12.9092" width="4.30303" height="17.2121" fill="#04D000"/>
<rect x="36.5757" y="30.1211" width="4.30303" height="12.9091" fill="#04D000"/>
<rect x="32.2727" y="34.4243" width="4.30303" height="8.60606" fill="#04D000"/>
<rect x="32.2727" y="48.1938" width="8.60606" height="8.60606" fill="#04D000"/>
<rect x="40.8788" y="17.2119" width="8.60606" height="17.2121" fill="#04D000"/>
<rect x="19.3636" y="17.2119" width="4.30303" height="12.9091" fill="#04D000"/>
<rect x="27.9696" y="12.9092" width="17.2121" height="4.30303" fill="#04D000"/>
</svg>
