<svg width="69" height="70" viewBox="0 0 69 70" fill="none" xmlns="http://www.w3.org/2000/svg">
<path fill-rule="evenodd" clip-rule="evenodd" d="M15.3334 0.5H53.6667V8H62V15.8333H69V54.1667H62V62H53.6667V69.5H15.3333V62H7V54.1667H0V15.8333H7V8H15.3334V0.5Z" fill="#0075FF"/>
<path d="M12.9927 31.565L8.42053 32.6408L25.3646 38.9613V51.3331H28.861L31.954 50.2573L33.7022 48.7781H35.4504L38.2744 47.1643L45.8051 55.0985H46.8809L47.6878 52.9469L56.5633 26.3204V20.8069H51.4531L46.8809 22.1517L43.1156 23.2275L37.1986 25.2446L30.7437 26.3204L26.5749 27.5307L20.2545 29.1445L16.3547 30.3547L12.9927 31.565Z" fill="white"/>
<rect x="6" y="32.103" width="3.76535" height="1.34477" fill="#9B9B9B"/>
<rect x="9.76538" y="30.7583" width="5.11012" height="1.34477" fill="#9B9B9B"/>
<rect x="14.8755" y="29.4136" width="4.57221" height="1.34477" fill="#9B9B9B"/>
<rect x="19.4475" y="28.0686" width="5.11012" height="1.34477" fill="#9B9B9B"/>
<rect x="24.5579" y="26.7241" width="5.11012" height="1.34477" fill="#9B9B9B"/>
<rect x="29.668" y="25.3792" width="5.91698" height="1.34477" fill="#9B9B9B"/>
<rect x="35.585" y="24.0344" width="4.84117" height="1.34477" fill="#9B9B9B"/>
<rect x="40.426" y="22.6895" width="4.84117" height="1.34477" fill="#9B9B9B"/>
<rect x="45.2672" y="21.345" width="4.84117" height="1.34477" fill="#9B9B9B"/>
<rect x="50.1085" y="20" width="7.53071" height="1.34477" fill="#9B9B9B"/>
<rect x="57.6392" y="20" width="7.26175" height="1.34477" transform="rotate(90 57.6392 20)" fill="#9B9B9B"/>
<rect x="56.2943" y="27.2617" width="3.4964" height="1.34477" transform="rotate(90 56.2943 27.2617)" fill="#9B9B9B"/>
<rect x="55.2184" y="30.7583" width="3.76535" height="1.34477" transform="rotate(90 55.2184 30.7583)" fill="#9B9B9B"/>
<rect x="53.8737" y="34.5232" width="3.76535" height="1.34477" transform="rotate(90 53.8737 34.5232)" fill="#9B9B9B"/>
<rect x="52.5291" y="38.2886" width="3.76535" height="1.34477" transform="rotate(90 52.5291 38.2886)" fill="#9B9B9B"/>
<rect x="51.4532" y="42.0544" width="3.76535" height="1.34477" transform="rotate(90 51.4532 42.0544)" fill="#9B9B9B"/>
<rect x="50.3774" y="45.5505" width="3.76535" height="1.34477" transform="rotate(90 50.3774 45.5505)" fill="#9B9B9B"/>
<rect x="49.0325" y="49.3162" width="3.76535" height="1.34477" transform="rotate(90 49.0325 49.3162)" fill="#9B9B9B"/>
<rect x="47.6877" y="52.5435" width="3.22744" height="1.34477" transform="rotate(90 47.6877 52.5435)" fill="#9B9B9B"/>
<rect x="24.5579" y="38.2886" width="1.34477" height="14.7925" fill="#9B9B9B"/>
<rect x="25.9027" y="49.3162" width="1.34477" height="3.76535" fill="#9B9B9B"/>
<rect x="26.9784" y="47.9714" width="1.34477" height="1.34477" fill="#9B9B9B"/>
<rect x="28.3234" y="45.8196" width="1.34477" height="2.15163" fill="#9B9B9B"/>
<rect x="29.668" y="43.937" width="1.34477" height="2.15163" fill="#9B9B9B"/>
<rect x="30.4749" y="42.0544" width="1.34477" height="2.42058" fill="#9B9B9B"/>
<rect x="31.8196" y="39.6338" width="1.34477" height="2.42058" fill="#9B9B9B"/>
<rect x="31.0127" y="50.6606" width="1.34477" height="3.76535" transform="rotate(90 31.0127 50.6606)" fill="#9B9B9B"/>
<rect x="23.213" y="36.9441" width="1.34477" height="3.76535" transform="rotate(90 23.213 36.9441)" fill="#9B9B9B"/>
<rect x="25.9027" y="38.2886" width="1.34477" height="2.68954" transform="rotate(90 25.9027 38.2886)" fill="#9B9B9B"/>
<rect x="28.5922" y="36.9441" width="1.34477" height="2.68954" transform="rotate(90 28.5922 36.9441)" fill="#9B9B9B"/>
<rect x="31.0127" y="35.5991" width="1.34477" height="2.68954" transform="rotate(90 31.0127 35.5991)" fill="#9B9B9B"/>
<rect x="33.1643" y="34.5232" width="1.34477" height="2.68954" transform="rotate(90 33.1643 34.5232)" fill="#9B9B9B"/>
<rect x="35.8539" y="33.4478" width="1.34477" height="2.68954" transform="rotate(90 35.8539 33.4478)" fill="#9B9B9B"/>
<rect x="38.2745" y="32.103" width="1.34477" height="2.68954" transform="rotate(90 38.2745 32.103)" fill="#9B9B9B"/>
<rect x="40.426" y="30.7583" width="1.34477" height="2.68954" transform="rotate(90 40.426 30.7583)" fill="#9B9B9B"/>
<rect x="42.8467" y="29.4136" width="1.34477" height="2.68954" transform="rotate(90 42.8467 29.4136)" fill="#9B9B9B"/>
<rect x="44.1914" y="28.3374" width="1.34477" height="2.68954" transform="rotate(90 44.1914 28.3374)" fill="#9B9B9B"/>
<rect x="46.6121" y="27.2617" width="1.34477" height="2.68954" transform="rotate(90 46.6121 27.2617)" fill="#9B9B9B"/>
<rect x="49.0325" y="26.186" width="1.34477" height="2.68954" transform="rotate(90 49.0325 26.186)" fill="#9B9B9B"/>
<rect x="51.1843" y="24.8411" width="1.34477" height="2.68954" transform="rotate(90 51.1843 24.8411)" fill="#9B9B9B"/>
<rect x="54.9495" y="23.4966" width="1.34477" height="3.76535" transform="rotate(90 54.9495 23.4966)" fill="#9B9B9B"/>
<rect x="19.9857" y="35.8684" width="1.34477" height="3.76535" transform="rotate(90 19.9857 35.8684)" fill="#9B9B9B"/>
<rect x="16.2202" y="34.5232" width="1.34477" height="3.76535" transform="rotate(90 16.2202 34.5232)" fill="#9B9B9B"/>
<rect x="12.455" y="33.1787" width="1.34477" height="3.76535" transform="rotate(90 12.455 33.1787)" fill="#9B9B9B"/>
<rect x="33.4332" y="49.3162" width="1.34477" height="2.95849" transform="rotate(90 33.4332 49.3162)" fill="#9B9B9B"/>
<rect x="36.9297" y="47.9714" width="1.34477" height="4.03431" transform="rotate(90 36.9297 47.9714)" fill="#9B9B9B"/>
<rect x="39.3503" y="46.895" width="1.34477" height="2.42058" transform="rotate(90 39.3503 46.895)" fill="#9B9B9B"/>
<rect x="35.585" y="38.2886" width="1.34477" height="2.42058" transform="rotate(90 35.585 38.2886)" fill="#9B9B9B"/>
<rect x="36.9297" y="36.9441" width="1.34477" height="1.61372" transform="rotate(90 36.9297 36.9441)" fill="#9B9B9B"/>
<rect x="39.3503" y="35.8684" width="1.34477" height="2.68954" transform="rotate(90 39.3503 35.8684)" fill="#9B9B9B"/>
<rect x="40.426" y="34.5232" width="1.34477" height="1.34477" transform="rotate(90 40.426 34.5232)" fill="#9B9B9B"/>
<rect x="41.7709" y="33.1787" width="1.34477" height="1.34477" transform="rotate(90 41.7709 33.1787)" fill="#9B9B9B"/>
<rect x="49.0325" y="28.6067" width="1.34477" height="1.34477" transform="rotate(90 49.0325 28.6067)" fill="#9B9B9B"/>
<rect x="52.7981" y="25.917" width="1.34477" height="1.34477" transform="rotate(90 52.7981 25.917)" fill="#9B9B9B"/>
<rect x="54.1428" y="24.5723" width="1.34477" height="1.34477" transform="rotate(90 54.1428 24.5723)" fill="#9B9B9B"/>
<rect x="34.5092" y="42.0544" width="1.34477" height="1.34477" transform="rotate(90 34.5092 42.0544)" fill="#9B9B9B"/>
<rect x="35.585" y="43.1301" width="1.34477" height="1.34477" transform="rotate(90 35.585 43.1301)" fill="#9B9B9B"/>
<rect x="36.9297" y="44.2058" width="1.34477" height="1.34477" transform="rotate(90 36.9297 44.2058)" fill="#9B9B9B"/>
<rect x="38.2745" y="45.5505" width="1.34477" height="1.34477" transform="rotate(90 38.2745 45.5505)" fill="#9B9B9B"/>
<rect x="40.426" y="47.9714" width="1.34477" height="1.34477" transform="rotate(90 40.426 47.9714)" fill="#9B9B9B"/>
<rect x="41.7709" y="49.0469" width="1.34477" height="1.34477" transform="rotate(90 41.7709 49.0469)" fill="#9B9B9B"/>
<rect x="42.8467" y="50.3918" width="1.34477" height="1.34477" transform="rotate(90 42.8467 50.3918)" fill="#9B9B9B"/>
<rect x="44.1914" y="51.7363" width="1.34477" height="1.34477" transform="rotate(90 44.1914 51.7363)" fill="#9B9B9B"/>
<rect x="45.5363" y="53.0813" width="1.34477" height="1.34477" transform="rotate(90 45.5363 53.0813)" fill="#9B9B9B"/>
<rect x="46.6121" y="54.157" width="1.61372" height="1.34477" transform="rotate(90 46.6121 54.157)" fill="#9B9B9B"/>
<rect x="45.5363" y="31.0269" width="1.34477" height="1.34477" transform="rotate(90 45.5363 31.0269)" fill="#9B9B9B"/>
<rect x="44.1914" y="32.103" width="1.34477" height="2.42058" transform="rotate(90 44.1914 32.103)" fill="#9B9B9B"/>
<rect x="47.6877" y="29.6824" width="1.34477" height="2.42058" transform="rotate(90 47.6877 29.6824)" fill="#9B9B9B"/>
<rect x="51.4532" y="27.2617" width="1.34477" height="2.42058" transform="rotate(90 51.4532 27.2617)" fill="#9B9B9B"/>
</svg>
